<svg xmlns="http://www.w3.org/2000/svg" width="512" height="512" viewBox="0 0 512 512" version="1.1">
	<path d="M 215.349 17.227 C 216.639 20.127, 222.037 31.990, 227.347 43.589 C 232.656 55.188, 237 65.865, 237 67.316 C 237 70.638, 234.683 72.116, 225 74.976 C 214.362 78.117, 196.201 85.404, 184.500 91.227 C 174.763 96.071, 155.449 107.465, 154.575 108.879 C 154.335 109.266, 162.496 108.570, 172.709 107.331 C 185.491 105.781, 191.851 105.385, 193.116 106.062 C 197.368 108.338, 197.260 109.675, 190.493 138.567 C 186.922 153.815, 184 166.489, 184 166.731 C 184 166.972, 186.137 165.619, 188.750 163.722 C 201.925 154.159, 220.479 145.534, 235.828 141.837 C 251.988 137.945, 272.383 139.397, 288.910 145.618 C 298.406 149.192, 311.848 156.161, 320.478 161.985 C 324.615 164.777, 328 166.834, 328 166.557 C 328 166.280, 325.097 153.595, 321.550 138.368 C 314.884 109.757, 314.758 108.270, 318.815 106.099 C 319.982 105.474, 325.672 105.789, 335.542 107.023 C 343.769 108.052, 352.525 109.145, 355 109.453 L 359.500 110.011 353.500 105.965 C 336.453 94.471, 312.959 83.316, 290.500 76.055 C 283.350 73.743, 276.982 71.323, 276.349 70.676 C 275.715 70.029, 269.321 56.675, 262.139 41 L 249.080 12.500 231.043 12.227 L 213.005 11.955 215.349 17.227 M 240.201 98.943 C 233.207 100.943, 220.803 106.794, 216.676 110.040 C 215.088 111.290, 214 113.132, 214 114.573 C 214 117.217, 217.170 121, 219.387 121 C 220.150 121, 224.538 118.998, 229.137 116.552 C 248.269 106.376, 263.137 106.371, 282.960 116.533 C 290.858 120.583, 292.058 120.931, 294.415 119.857 C 297.728 118.347, 298.714 114.739, 296.668 111.616 C 294.623 108.495, 278.223 100.455, 270 98.542 C 261.295 96.517, 248.066 96.695, 240.201 98.943 M 160.941 120.970 L 139.382 123.600 131.471 129.550 C 88.597 161.797, 59.424 211.528, 51.613 265.682 C 49.527 280.140, 49.497 307.271, 51.550 322.216 C 64.041 413.152, 134.952 484.638, 226.500 498.585 C 241.482 500.867, 270.732 500.873, 285.500 498.597 C 330.208 491.705, 369.953 471.798, 401.405 440.544 C 433.437 408.713, 453.863 368.099, 460.519 323 C 462.770 307.748, 462.791 280.304, 460.563 265.500 C 452.364 211.012, 424.353 162.870, 382.110 130.660 L 372.720 123.500 351.110 120.838 C 339.225 119.373, 329.381 118.293, 329.235 118.436 C 328.996 118.671, 333.400 138.265, 334.548 142.072 C 334.809 142.937, 336.929 144.697, 339.261 145.985 C 359.990 157.431, 382.704 178.372, 396.183 198.462 C 445.424 271.855, 431.412 368.952, 363.500 424.948 C 339.742 444.537, 311.114 457.193, 279.500 462.084 C 269.202 463.677, 242.798 463.677, 232.500 462.084 C 208.439 458.362, 184.605 449.592, 165.274 437.349 C 141.274 422.148, 116.732 395.289, 104.317 370.637 C 80.777 323.893, 80.097 268.665, 102.478 221.373 C 117.032 190.621, 141.510 163.753, 169.619 147.680 L 176.928 143.500 179.881 131.001 C 181.506 124.126, 182.759 118.465, 182.667 118.421 C 182.575 118.377, 172.798 119.524, 160.941 120.970 M 242.500 152.575 C 233.852 154.072, 227.945 156.059, 217 161.150 C 209.239 164.761, 194 173.617, 194 174.517 C 194 174.724, 195.575 177.580, 197.500 180.865 C 201.510 187.707, 201.816 190.184, 199 193 C 195.189 196.811, 192 195.085, 186.988 186.500 C 185.704 184.300, 184.518 182.324, 184.353 182.110 C 184.188 181.895, 182.240 183.358, 180.024 185.360 C 175.466 189.477, 172.898 189.898, 170 187 C 167.527 184.527, 167.528 183.574, 170.007 173 C 171.103 168.325, 172.233 163.488, 172.519 162.250 C 172.804 161.012, 172.599 160, 172.062 160 C 171.525 160, 166.679 163.324, 161.293 167.386 C 149.694 176.134, 134.451 191.567, 127.197 201.906 C 122.448 208.675, 122.152 209.415, 123.750 210.503 C 124.713 211.157, 131.932 215.407, 139.792 219.946 C 155.287 228.894, 157.923 231.384, 155.921 235.183 C 154.455 237.967, 153.094 238.964, 150.733 238.985 C 149.279 238.997, 134.564 230.960, 119.294 221.812 L 116.089 219.892 113.668 224.696 C 106.565 238.789, 99.813 263.187, 98.430 279.750 L 97.742 288 125.716 288 C 151.547 288, 153.817 288.140, 155.345 289.829 C 157.707 292.439, 157.434 296.582, 154.777 298.443 C 152.897 299.760, 148.335 300, 125.148 300 L 97.742 300 98.430 308.250 C 99.793 324.572, 105.138 344.414, 112.560 360.702 L 115.866 367.955 132.380 358.406 C 150.129 348.142, 153.335 347.245, 155.641 351.895 C 157.808 356.264, 155.940 358.140, 140.412 367.198 C 132.210 371.982, 124.696 376.384, 123.712 376.980 C 122.079 377.970, 122.371 378.710, 127.096 385.545 C 136.522 399.180, 152.438 414.606, 168.639 425.808 L 171.779 427.979 181.006 411.936 C 190.859 394.806, 193.444 391.970, 197.513 393.824 C 203.132 396.384, 201.831 399.863, 183.704 430.759 L 181.791 434.019 189.172 437.382 C 205.609 444.873, 225.579 450.276, 241.750 451.608 L 250 452.288 250 424.866 C 250 394.495, 250.281 393, 256 393 C 261.719 393, 262 394.495, 262 424.866 L 262 452.288 270.023 451.618 C 287.299 450.178, 305.920 445.249, 321.806 437.913 C 329.022 434.581, 329.984 433.843, 329.137 432.289 C 328.602 431.305, 324.301 423.787, 319.582 415.582 C 314.862 407.377, 311 399.872, 311 398.904 C 311 394.854, 318.231 392.154, 320.787 395.250 C 321.355 395.938, 325.724 403.250, 330.496 411.500 C 335.269 419.750, 339.503 426.846, 339.905 427.268 C 341.316 428.751, 355.623 417.542, 367.582 405.582 C 379.557 393.608, 390.746 379.321, 389.268 377.895 C 388.846 377.487, 381.750 373.249, 373.500 368.477 C 365.250 363.705, 357.938 359.340, 357.250 358.778 C 354.202 356.284, 357.094 349, 361.132 349 C 361.943 349, 369.332 352.865, 377.553 357.590 C 385.774 362.314, 393.305 366.614, 394.289 367.146 C 395.840 367.984, 396.588 367.011, 399.932 359.806 C 407.263 344.008, 412.384 324.863, 413.636 308.569 L 414.295 300 386.870 300 C 356.494 300, 355 299.719, 355 294 C 355 288.282, 356.495 288, 386.860 288 L 414.276 288 413.589 280.250 C 412.631 269.423, 409.508 254.629, 405.922 243.926 C 402.144 232.651, 396.306 219.701, 395.273 220.308 C 361.783 240.010, 359.020 241.107, 356.091 235.865 C 354.781 233.520, 354.797 232.959, 356.236 230.762 C 357.126 229.405, 362.499 225.668, 368.177 222.459 C 373.855 219.250, 381.096 215.107, 384.269 213.253 L 390.038 209.882 384.769 202.191 C 377.853 192.096, 358.648 172.872, 348.193 165.577 C 343.624 162.389, 339.630 160.037, 339.318 160.348 C 339.006 160.660, 339.921 165.997, 341.351 172.208 C 343.886 183.219, 343.905 183.562, 342.125 186 C 339.437 189.682, 336.867 189.567, 332.059 185.549 C 329.723 183.597, 327.671 182, 327.501 182 C 327.330 182, 325.785 184.490, 324.068 187.534 C 320.275 194.255, 317.213 196.025, 313.541 193.619 C 310.034 191.321, 310.289 188.049, 314.542 180.793 C 316.490 177.470, 317.952 174.634, 317.792 174.493 C 316.061 172.964, 302.094 164.549, 297.223 162.099 C 288.764 157.847, 274.669 153.214, 267.698 152.394 L 262 151.725 262 171.408 L 262 191.091 259.483 193.608 C 256.973 196.118, 254.027 196.203, 251.500 193.840 C 250.929 193.306, 250.286 184.002, 250 172.134 L 249.500 151.363 242.500 152.575 M 292.136 221.727 C 290.957 222.702, 281.107 238.800, 270.246 257.500 L 250.500 291.500 250.190 310.834 C 249.841 332.589, 250.417 335, 255.966 335 C 261.358 335, 262 332.659, 262 312.990 L 262 295.425 279.590 264.962 C 303.188 224.094, 302.275 226.004, 299.750 222.792 C 297.721 220.210, 294.511 219.761, 292.136 221.727" stroke="none" fill="black" fill-rule="evenodd"/>
</svg>