<?xml version="1.0" standalone="no"?>
<!DOCTYPE svg PUBLIC "-//W3C//DTD SVG 20010904//EN"
 "http://www.w3.org/TR/2001/REC-SVG-20010904/DTD/svg10.dtd">
<svg version="1.0" xmlns="http://www.w3.org/2000/svg"
 width="512.000000pt" height="512.000000pt" viewBox="0 0 512.000000 512.000000"
 preserveAspectRatio="xMidYMid meet">
<metadata>
Created by potrace 1.14, written by Peter Selinger 2001-2017
</metadata>
<g transform="translate(0.000000,512.000000) scale(0.100000,-0.100000)"
fill="#000000" stroke="none">
<path d="M2130 4998 c0 -5 14 -39 31 -76 18 -37 49 -104 70 -150 22 -45 39
-84 39 -86 0 -2 23 -51 50 -109 28 -58 50 -115 50 -126 0 -25 -34 -61 -57 -61
-26 0 -254 -82 -358 -128 -138 -61 -302 -151 -390 -215 l-40 -29 50 7 c28 4
60 8 73 10 13 2 53 7 90 11 37 3 89 10 117 14 55 9 88 0 103 -26 8 -15 3 -47
-33 -204 -2 -8 -13 -58 -24 -110 -12 -52 -26 -111 -31 -130 -21 -76 -30 -116
-30 -128 0 -10 47 17 116 65 18 13 52 32 122 67 99 50 128 62 222 90 238 72
470 46 723 -81 93 -46 211 -117 237 -142 22 -21 23 0 4 71 -9 34 -18 74 -20
88 -3 14 -7 33 -10 42 -3 9 -7 25 -9 35 -3 16 -20 88 -30 133 -2 8 -13 55 -24
104 l-20 88 24 24 c13 13 32 22 42 20 10 -2 45 -7 78 -10 33 -4 111 -13 173
-21 62 -8 116 -15 120 -15 4 0 -34 27 -84 60 -171 111 -411 223 -609 284 -49
15 -100 33 -113 39 -16 8 -40 48 -74 122 -27 61 -62 137 -77 170 -15 33 -54
116 -85 185 l-57 126 -180 0 c-98 0 -179 -4 -179 -8z m580 -865 c61 -16 204
-82 237 -110 32 -27 39 -65 14 -87 -29 -27 -51 -26 -103 5 -105 62 -201 92
-296 91 -90 0 -154 -18 -262 -71 -52 -26 -99 -46 -105 -46 -39 6 -62 44 -49
79 13 34 165 111 277 140 67 18 216 17 287 -1z"/>
<path d="M1705 3924 c-44 -6 -109 -14 -145 -18 -166 -16 -162 -15 -254 -84
-75 -57 -128 -105 -224 -202 -605 -612 -760 -1561 -382 -2335 230 -471 624
-839 1095 -1022 136 -53 117 -47 235 -78 237 -64 501 -85 746 -58 65 6 129 15
143 18 14 3 35 7 46 9 167 33 359 99 520 181 263 133 462 292 675 541 39 45
141 192 183 263 100 168 200 425 232 592 2 11 6 28 9 37 3 9 8 35 11 57 3 23
7 51 10 63 2 12 7 59 11 105 59 683 -215 1342 -736 1773 -141 116 -150 122
-216 128 -54 6 -98 11 -179 21 -172 22 -195 24 -195 17 1 -4 13 -61 28 -127
26 -112 29 -121 58 -135 112 -57 295 -198 407 -314 64 -66 207 -247 207 -261
0 -3 15 -29 33 -58 108 -170 201 -449 224 -677 15 -143 7 -362 -18 -490 -100
-511 -416 -940 -879 -1192 -118 -64 -345 -145 -455 -162 -22 -4 -69 -12 -105
-18 -106 -19 -390 -15 -495 6 -11 2 -40 7 -65 12 -25 4 -47 8 -50 9 -3 1 -18
5 -35 9 -231 60 -436 160 -620 304 -316 246 -532 581 -620 960 -14 61 -18 79
-32 187 -9 63 -9 323 0 395 19 162 76 361 145 513 92 201 264 428 438 577 86
74 271 200 293 200 18 0 36 54 55 156 3 12 9 39 15 60 6 22 11 41 11 45 0 8
-35 6 -125 -7z"/>
<path d="M2490 3607 c-3 -2 -28 -7 -55 -10 -103 -10 -298 -91 -431 -178 -35
-23 -64 -43 -64 -46 0 -3 16 -32 35 -64 19 -33 35 -69 35 -79 0 -20 -36 -60
-55 -60 -22 0 -55 32 -81 80 -15 28 -30 50 -34 50 -4 0 -15 -9 -26 -21 -33
-37 -70 -51 -98 -37 -31 14 -40 38 -30 81 4 17 9 37 10 42 1 6 9 39 18 75 9
36 16 71 16 78 0 30 -207 -131 -318 -247 -70 -73 -177 -212 -184 -239 -2 -7
20 -26 47 -42 130 -75 201 -115 210 -119 27 -10 67 -46 74 -65 11 -28 -7 -65
-36 -72 -21 -6 -95 31 -253 124 -19 11 -52 30 -73 41 l-38 21 -39 -82 c-72
-154 -122 -343 -136 -515 l-7 -83 47 0 c25 0 150 0 278 -1 256 0 268 -3 268
-60 0 -54 -17 -57 -319 -55 l-273 1 6 -70 c6 -77 12 -127 20 -165 3 -14 11
-50 17 -80 15 -72 63 -207 105 -297 l34 -72 162 94 c92 54 174 95 189 95 46 0
71 -64 37 -95 -7 -7 -78 -50 -158 -96 -80 -45 -151 -87 -158 -94 -16 -15 77
-143 191 -262 67 -70 285 -249 293 -240 1 1 46 76 99 167 54 91 102 168 109
173 28 19 86 -16 86 -53 0 -13 -106 -210 -171 -317 l-20 -32 63 -30 c60 -28
172 -73 183 -72 2 0 24 -6 47 -15 60 -21 220 -52 311 -59 61 -6 77 -4 78 6 0
8 0 131 0 274 0 289 3 305 59 305 56 0 59 -17 59 -300 0 -140 0 -263 0 -273 1
-17 8 -18 74 -13 39 3 82 8 93 10 12 2 39 7 60 10 109 17 264 67 391 126 l64
30 -31 52 c-18 29 -34 61 -37 70 -3 10 -9 18 -14 18 -5 0 -9 4 -9 9 0 5 -22
48 -50 96 -27 48 -50 95 -50 105 0 11 10 28 22 40 26 24 54 19 81 -13 17 -20
113 -181 130 -217 22 -46 57 -95 68 -92 7 2 53 34 103 72 110 82 241 215 325
329 l63 85 -23 17 c-12 9 -45 28 -73 43 -123 64 -232 134 -243 155 -16 33 2
68 38 76 22 5 56 -10 186 -86 87 -50 161 -93 165 -96 16 -9 101 195 137 327
23 85 51 255 51 313 l0 37 -267 0 c-148 0 -278 3 -289 6 -44 12 -49 81 -7 102
10 5 141 8 291 8 l272 -1 -5 74 c-6 75 -14 142 -20 151 -2 3 -6 24 -10 47 -11
79 -61 230 -114 345 l-30 68 -51 -30 c-28 -17 -53 -30 -55 -30 -2 0 -53 -29
-114 -65 -60 -36 -119 -65 -130 -65 -26 0 -61 34 -61 58 0 26 31 51 130 107
47 26 115 65 153 87 l67 39 -52 76 c-55 80 -231 265 -308 324 -39 30 -108 78
-147 102 -12 8 -13 11 16 -108 34 -138 34 -141 5 -164 -36 -28 -45 -27 -94 14
-23 19 -43 35 -45 35 -2 0 -17 -25 -34 -55 -38 -68 -69 -85 -106 -61 -35 23
-32 57 11 128 20 33 33 63 28 67 -101 70 -267 156 -359 186 -27 8 -83 21 -122
29 -66 12 -73 12 -74 -3 0 -9 -1 -97 -1 -196 0 -99 -4 -188 -9 -197 -20 -38
-64 -42 -99 -11 -3 3 -7 99 -10 215 -3 115 -7 208 -10 205z m511 -719 c15 -28
6 -55 -50 -150 -27 -46 -113 -193 -190 -328 l-141 -244 0 -180 c0 -197 -5
-216 -60 -216 -51 0 -55 16 -57 224 -2 215 -6 200 93 363 24 40 44 76 44 80 0
3 6 14 14 22 7 9 26 39 41 66 15 28 53 95 85 150 32 55 70 123 85 150 36 67
66 94 99 88 15 -3 31 -14 37 -25z"/>
</g>
</svg>
